EPIC.mp4

General

Format                                   : MPEG-4
Format profile                           : Base Media
Codec ID                                 : isom
File size                                : 450 MiB
Duration                                 : 1h 34mn
Overall bit rate mode                    : Variable
Overall bit rate                         : 669 Kbps
Writing application                      : Lavf54.32.101

Video
ID                                       : 1
Format                                   : AVC
Format/Info                              : Advanced Video Codec
Format profile                           : High@L3.0
Format settings, CABAC                   : Yes
Format settings, ReFrames                : 4 frames
Codec ID                                 : avc1
Codec ID/Info                            : Advanced Video Coding
Duration                                 : 1h 34mn
Bit rate mode                            : Variable
Bit rate                                 : 564 Kbps
Width                                    : 720 pixels
Height                                   : 288 pixels
Display aspect ratio                     : 2.500
Frame rate mode                          : Constant
Frame rate                               : 29.970 fps
Color space                              : YUV
Chroma subsampling                       : 4:2:0
Bit depth                                : 8 bits
Scan type                                : Progressive
Bits/(Pixel*Frame)                       : 0.091
Stream size                              : 379 MiB (84%)
Writing library                          : x264 core 128 r2216 198a7ea

Audio
ID                                       : 2
Format                                   : AAC
Format/Info                              : Advanced Audio Codec
Format profile                           : LC
Codec ID                                 : 40
Duration                                 : 1h 34mn
Bit rate mode                            : Variable
Bit rate                                 : 96.0 Kbps
Channel(s)                               : 2 channels
Channel positions                        : Front: L R
Sampling rate                            : 44.1 KHz
Compression mode                         : Lossy
Stream size                              : 63.4 MiB (14%)



Plot

Mary Katherine (a.k.a. M.K.) (Amanda Seyfried), a near-20s teenager, visits her estranged and eccentric scientist father, Professor Bomba (Jason Sudeikis), who has been searching for tiny human soldiers, about which M.K. is skeptical. She wants her father to stop his work. Unknown to the both of them, Bomba is right that there are tiny soldiers called Leafmen. They protect the forest Bomba lives near from evil creatures called Boggans, who shoot arrows that can kill any living thing, and their malevolent leader, Mandrake (Christoph Waltz), who plans to destroy the forest. An independent young soldier, Nod (Josh Hutcherson) decides to quit, much to the ire of the no-nonsense Leafmen leader, Ronin (Colin Farrell), who wants Nod to learn about teamwork.

The queen of the forest, Queen Tara (Beyoncé Knowles), decides to choose an heir to her throne and goes out to a field of leaf pods, guarded by a laid-back slug named Mub (Aziz Ansari) and an uptight snail named Grub (Chris O'Dowd), who wants to become a leaf man, to use her magic to tell her whom to choose. When she chooses, the Boggans attack. In the midst of the attack, Mandrake's son and lead general, Dagda (Blake Anderson), is killed by Ronin, but Tara is shot by Mandrake.



* enjoy...


